Coordinates
version=1
nRows=12
nColumns=24
inDegrees=yes

Units are S.I. units (second, meters, Newtons, ...)
Angles are in degrees.

endheader
time	pelvis_tilt	pelvis_list	pelvis_rotation	pelvis_tx	pelvis_ty	pelvis_tz	hip_flexion_r	hip_adduction_r	hip_rotation_r	knee_angle_r	ankle_angle_r	subtalar_angle_r	mtp_angle_r	hip_flexion_l	hip_adduction_l	hip_rotation_l	knee_angle_l	ankle_angle_l	subtalar_angle_l	mtp_angle_l	lumbar_extension	lumbar_bending	lumbar_rotation
      4.37500000	     -8.91479933	     -1.74039377	     -6.40028312	     -1.10776425	     -0.04138988	     -0.25691117	     -7.26466407	      3.17783252	      4.18858371	    -19.89599183	      5.60792960	     15.05934838	     21.61344897	     36.78654198	     -3.73679532	     -0.50383396	    -12.85590028	      6.30336953	     16.35755493	     -9.43656354	      8.67106025	      2.29213718	      6.87261693
      4.38000000	     -8.99079286	     -1.46179594	     -6.55733704	     -1.09989982	     -0.04247183	     -0.25714250	     -7.21219388	      2.68285800	      3.87099505	    -20.68707951	      5.08233488	     15.83806540	     22.46305337	     36.93677588	     -3.43705734	     -0.48809571	    -13.67970743	      4.91948695	     15.52572385	     -8.50558614	      8.89585032	      1.94499517	      6.98654610
      4.38500000	     -9.07992318	     -1.13778652	     -6.62863647	     -1.09198503	     -0.04343600	     -0.25742365	     -7.15073050	      2.14606616	      3.53960125	    -21.43399388	      4.38280985	     16.59190061	     23.50992809	     37.10445253	     -3.05621664	     -0.46151216	    -14.47703304	      3.25555568	     14.57977568	     -7.41357168	      9.15516239	      1.51314844	      6.92163697
      4.39000000	     -9.19771394	     -0.84891556	     -6.78669366	     -1.08429917	     -0.04437858	     -0.25765735	     -6.95650176	      1.62625930	      3.21161489	    -22.34498804	      3.74801590	     17.51677077	     24.29758549	     37.37767356	     -2.76915308	     -0.53995919	    -15.46518428	      1.83264475	     13.64039394	     -7.05057886	      9.39165287	      1.15017130	      7.02970235
      4.39500000	     -9.32235345	     -0.51134277	     -6.85219084	     -1.07650651	     -0.04518805	     -0.25797030	     -6.75261983	      1.04636136	      2.74652550	    -23.21955576	      2.89139277	     18.43361854	     25.30513897	     37.65483160	     -2.38076982	     -0.54194679	    -16.43592851	      0.31664521	     12.54653286	     -6.76992702	      9.65968543	      0.70839682	      7.03665976
      4.40000000	     -9.42706500	     -0.14446428	     -6.82809642	     -1.06869078	     -0.04589623	     -0.25834790	     -6.57116038	      0.43645407	      2.23927239	    -24.05088788	      1.83643839	     19.25962003	     26.68770278	     37.93295673	     -1.91440840	     -0.51512047	    -17.43713551	     -1.20106074	     11.40922853	     -6.55694809	      9.90819932	      0.19828409	      6.89772189
      4.40500000	     -9.56620030	      0.17542518	     -6.88010687	     -1.06105622	     -0.04654367	     -0.25867734	     -6.25155043	     -0.14802925	      1.74332286	    -25.04574401	      0.76812759	     20.29189788	     27.70849738	     38.27021785	     -1.54589747	     -0.50867896	    -18.52730731	     -2.43515216	     10.36791001	     -6.85360455	     10.15330350	     -0.23249652	      6.87283750
      4.41000000	     -9.65798483	      0.51837399	     -6.83731965	     -1.05325682	     -0.04706380	     -0.25912978	     -6.01263994	     -0.77286444	      1.15175312	    -25.94558032	     -0.58845319	     21.21978623	     29.12415288	     38.54938574	     -1.07949512	     -0.41110318	    -19.63352573	     -3.50446443	      9.27462292	     -7.38920644	     10.37937004	     -0.71112648	      6.80333341
      4.41500000	     -9.82581179	      0.90259252	     -6.91817582	     -1.04551582	     -0.04757330	     -0.25938338	     -5.58667641	     -1.43187697	      0.78213523	    -27.03411767	     -1.85134104	     22.23279093	     29.87439661	     38.88737022	     -0.68409458	     -0.49551005	    -20.73113289	     -4.37531748	      8.35603972	     -7.95886840	     10.68499822	     -1.20501202	      6.81830289
      4.42000000	     -9.76128462	      1.19589118	     -6.77109524	     -1.03779239	     -0.04783223	     -0.25998363	     -5.48759661	     -2.03425380	      0.12275657	    -27.88706897	     -3.70874992	     22.95467758	     32.03812701	     38.97271894	     -0.15460293	     -0.17802532	    -21.84444409	     -4.93606174	      7.35424621	     -9.08135322	     10.69687561	     -1.66930651	      6.59541142
      4.42500000	     -9.83961541	      1.51366766	     -6.71815550	     -1.03004539	     -0.04817537	     -0.26047223	     -5.14243410	     -2.65558895	     -0.38142910	    -28.92684200	     -5.44853496	     23.85505622	     33.30519712	     39.17567022	      0.30383358	     -0.01628358	    -22.91879414	     -5.33650724	      6.57493595	     -9.97360763	     10.88784656	     -2.11281979	      6.55214364
      4.43000000	     -9.92513324	      1.86786258	     -6.71255856	     -1.02232381	     -0.04850859	     -0.26088652	     -4.71310584	     -3.31128317	     -0.74024199	    -30.11458256	     -7.08190431	     24.84138885	     33.87878233	     39.34639775	      0.74856637	      0.00646833	    -23.91445089	     -5.66919924	      5.91116297	    -10.42597005	     11.09129427	     -2.58086376	      6.53583186
